<?xml version="1.0" standalone="yes"?>
<svg id="LOGO" xmlns="http://www.w3.org/2000/svg" viewBox="0 0 1253.91 477.22"><defs><style>.cls-1{fill:#fff;}</style></defs><path class="cls-1" d="M149.37,439.36v86.1H138.3V487H96.23v38.5H85v-86.1H96.23v37.52H138.3V439.36Z" transform="translate(-85.04 -49.48)"/><path class="cls-1" d="M219.8,517.1v8.36h-4.92c-5.78,0-9.6-2-10.95-7.87-4.31,5.54-11.19,9.1-20.3,9.1-11.43,0-20.29-5.53-20.29-17.58,0-11.57,8.86-17.59,20.91-18.82l18.33-1.73v-3.44c0-8.36-4.55-13.53-12.8-13.53s-12.05,5-13.28,11.69H165.8c1.23-11.81,9.84-20.55,24-20.55,13.78,0,23.62,7.75,23.62,22.64v26.69c0,3.57,1.6,5,4.8,5Zm-17.22-20.66-14.89,1.47c-8,.74-13.53,4.31-13.53,10.83,0,6.89,5.05,9.34,11,9.34,8.12,0,17.47-4.3,17.47-16.23Z" transform="translate(-85.04 -49.48)"/><path class="cls-1" d="M229.44,464h9.72l1,8.49H241c3.2-5.53,7.5-9.72,17.59-9.72h3.57v10.83a40.22,40.22,0,0,0-5.54-.25c-10.7,0-16.48,8.37-16.48,19.93v32.22h-10.7Z" transform="translate(-85.04 -49.48)"/><path class="cls-1" d="M280.69,511.57V472.7h-13V464h4.19c7.25,0,9.84-2.46,9.84-9.1v-7.62h9.84V464h15.37v8.74H291.52v37.39c0,4.43,1.72,7.75,7.75,7.75a21.3,21.3,0,0,0,6.15-1v8.49a32,32,0,0,1-9,1.35C283.64,526.69,280.69,518.7,280.69,511.57Z" transform="translate(-85.04 -49.48)"/><path class="cls-1" d="M315.09,464h9.72l1,8.49h.86c3.2-5.53,7.51-9.72,17.59-9.72h3.57v10.83a40.07,40.07,0,0,0-5.53-.25c-10.71,0-16.49,8.37-16.49,19.93v32.22h-10.7Z" transform="translate(-85.04 -49.48)"/><path class="cls-1" d="M408.62,497.3H362.74c.62,12.17,7.75,20.54,19.19,20.54,8,0,14-3.57,16.11-10.33H408.5c-2.71,12.17-12.92,19.18-26.57,19.18-17.47,0-29.89-12.42-29.89-31.36,0-19.93,12.79-32.6,29.4-32.6,14.88,0,27.43,10.21,27.43,30.75C408.87,494.71,408.74,495.82,408.62,497.3Zm-45.76-7.88h35.55c-.12-10.57-7-17.83-17-17.83C371.1,471.59,364,479.46,362.86,489.42Z" transform="translate(-85.04 -49.48)"/><path class="cls-1" d="M475,497.3H429.09c.61,12.17,7.75,20.54,19.18,20.54,8,0,14-3.57,16.12-10.33h10.45c-2.7,12.17-12.91,19.18-26.57,19.18-17.46,0-29.88-12.42-29.88-31.36,0-19.93,12.79-32.6,29.39-32.6,14.89,0,27.43,10.21,27.43,30.75C475.21,494.71,475.09,495.82,475,497.3Zm-45.76-7.88h35.55c-.13-10.57-7-17.83-17-17.83C437.45,471.59,430.32,479.46,429.21,489.42Z" transform="translate(-85.04 -49.48)"/><path class="cls-1" d="M561.56,526.69c-24.73,0-40.84-18.45-40.84-43.91s16.24-44.65,40.84-44.65c18.32,0,32.71,10.34,35.79,28.17H585.54c-2.95-10.7-11.44-17.83-23.86-17.83C543.6,448.47,532,464,532,482.78c0,19.31,12.05,33.58,29.52,33.58,12.91,0,22-7,25.33-17.09H598.7C595.5,515.87,580.62,526.69,561.56,526.69Z" transform="translate(-85.04 -49.48)"/><path class="cls-1" d="M665.17,497.3H619.29c.62,12.17,7.75,20.54,19.19,20.54,8,0,14-3.57,16.11-10.33h10.46c-2.71,12.17-12.92,19.18-26.57,19.18-17.47,0-29.89-12.42-29.89-31.36,0-19.93,12.79-32.6,29.4-32.6,14.88,0,27.43,10.21,27.43,30.75C665.42,494.71,665.29,495.82,665.17,497.3Zm-45.76-7.88H655c-.12-10.57-7-17.83-17-17.83C627.66,471.59,620.52,479.46,619.41,489.42Z" transform="translate(-85.04 -49.48)"/><path class="cls-1" d="M677.68,464h9.72l1,7.38h.86c3.32-4.55,8.24-8.61,17.84-8.61,13.16,0,22.38,8.37,22.38,24.11v38.62h-10.7V489.18c0-11.81-6.39-17-14.39-17-8.36,0-16,5.41-16,18.2v35.05h-10.7Z" transform="translate(-85.04 -49.48)"/><path class="cls-1" d="M749.41,511.57V472.7h-13V464h4.19c7.25,0,9.84-2.46,9.84-9.1v-7.62h9.84V464h15.37v8.74H760.24v37.39c0,4.43,1.72,7.75,7.75,7.75a21.3,21.3,0,0,0,6.15-1v8.49a32,32,0,0,1-9,1.35C752.36,526.69,749.41,518.7,749.41,511.57Z" transform="translate(-85.04 -49.48)"/><path class="cls-1" d="M783.81,464h9.72l1,8.49h.86c3.19-5.53,7.5-9.72,17.59-9.72h3.56v10.83a40,40,0,0,0-5.53-.25c-10.7,0-16.48,8.37-16.48,19.93v32.22H783.81Z" transform="translate(-85.04 -49.48)"/><path class="cls-1" d="M877.34,497.3H831.46c.62,12.17,7.75,20.54,19.19,20.54,8,0,14-3.57,16.11-10.33h10.46c-2.71,12.17-12.92,19.18-26.57,19.18-17.47,0-29.89-12.42-29.89-31.36,0-19.93,12.79-32.6,29.4-32.6,14.88,0,27.43,10.21,27.43,30.75C877.59,494.71,877.46,495.82,877.34,497.3Zm-45.76-7.88h35.55c-.12-10.57-7-17.83-17-17.83C839.83,471.59,832.69,479.46,831.58,489.42Z" transform="translate(-85.04 -49.48)"/><path class="cls-1" d="M740.15,174.12c-12.42,0-21-8.12-21-18.76h10.56c1,7.07,6.82,8.69,10.39,8.69,2.76,0,8.29-1,8.29-6.25,0-4.79-4.63-6.74-9.26-8.53-7.64-3-18.44-6.66-18.44-17.46,0-9.58,8.37-15.43,18.52-15.43,11.77,0,18.35,7.88,18.35,15.11H747.14c-.57-3.17-4.06-5.2-8.12-5.2-3.9,0-7.15,2-7.15,5.52s3.17,4.87,8.69,7.39c5.93,2.68,18.6,5.85,18.6,18.68C759.16,168.52,750.47,174.12,740.15,174.12Z" transform="translate(-85.04 -49.48)"/><path class="cls-1" d="M784.83,174.12a20.29,20.29,0,0,1-20.55-20.63,20.61,20.61,0,0,1,21-20.79A19.47,19.47,0,0,1,804.65,148h-11a9.42,9.42,0,0,0-8.61-5.44c-5.68,0-10.23,4.55-10.23,10.88S779.31,164.3,785,164.3a9.37,9.37,0,0,0,8.29-4.88H804.4C801.8,169.09,793.44,174.12,784.83,174.12Z" transform="translate(-85.04 -49.48)"/><path class="cls-1" d="M810.9,121.74a6.91,6.91,0,0,1,7-6.9,6.82,6.82,0,0,1,6.82,6.9,6.91,6.91,0,0,1-6.82,6.82A7,7,0,0,1,810.9,121.74Zm12.19,52h-10.4V133.11h10.4Z" transform="translate(-85.04 -49.48)"/><path class="cls-1" d="M870.52,156.5H840.88c1.22,6.17,6.25,8.45,10.64,8.45,5.52,0,7.87-3.42,7.87-3.42h10.24a19.33,19.33,0,0,1-18.44,12.59c-11,0-20.55-8.36-20.55-21s9.51-20.39,20.23-20.39C861.26,132.7,871.82,139.93,870.52,156.5Zm-29-8.2H859.8c-1.22-4.79-4.55-6.74-8.61-6.74A10,10,0,0,0,841.53,148.3Z" transform="translate(-85.04 -49.48)"/><path class="cls-1" d="M916.5,151.71v22H905.69V154.14c0-1.38,1-11.61-6.82-12-3.82-.24-10.64,1.87-10.64,12.51v19.09H877.51V133.11h8.29l1.38,4.95h1.38c1.7-2,5.52-5.36,12.34-5.36C911.38,132.7,916.5,140.5,916.5,151.71Z" transform="translate(-85.04 -49.48)"/><path class="cls-1" d="M944,174.12a20.29,20.29,0,0,1-20.55-20.63,20.61,20.61,0,0,1,21-20.79A19.46,19.46,0,0,1,963.85,148H952.8a9.41,9.41,0,0,0-8.61-5.44c-5.68,0-10.23,4.55-10.23,10.88s4.55,10.89,10.23,10.89a9.37,9.37,0,0,0,8.29-4.88H963.6C961,169.09,952.64,174.12,944,174.12Z" transform="translate(-85.04 -49.48)"/><path class="cls-1" d="M1009.09,156.5H979.45c1.22,6.17,6.25,8.45,10.64,8.45,5.52,0,7.87-3.42,7.87-3.42h10.24a19.33,19.33,0,0,1-18.44,12.59c-11,0-20.55-8.36-20.55-21s9.51-20.39,20.23-20.39C999.83,132.7,1010.39,139.93,1009.09,156.5Zm-29-8.2h18.27c-1.22-4.79-4.55-6.74-8.61-6.74A10,10,0,0,0,980.1,148.3Z" transform="translate(-85.04 -49.48)"/><path class="cls-1" d="M1077.08,165.92v7.8h-2.44c-4.71,0-8-1.71-9.42-5.2-2.44,3.33-6.5,5.6-12.83,5.6-9.18,0-15-4.71-15-12,0-12.67,17.3-13.8,25.1-14.21-.16-4.71-2.76-6.41-6.9-6.41-5.77,0-6.18,3.49-6.18,3.49h-10.15c.73-7.23,6.66-12.27,16.57-12.27,9.66,0,16.49,4.8,16.49,16.57v10.8C1072.29,164.78,1074,165.92,1077.08,165.92Zm-14.78-9.26v-.81c-7.39.81-14.7,1.71-14.7,5.93C1047.6,168,1061.65,167.46,1062.3,156.66Z" transform="translate(-85.04 -49.48)"/><path class="cls-1" d="M1122.08,151.71v22h-10.8V154.14c0-1.38,1-11.61-6.83-12-3.81-.24-10.64,1.87-10.64,12.51v19.09h-10.72V133.11h8.29l1.38,4.95h1.38c1.7-2,5.52-5.36,12.34-5.36C1117,132.7,1122.08,140.5,1122.08,151.71Z" transform="translate(-85.04 -49.48)"/><path class="cls-1" d="M1168.62,116.05v57.67h-8l-1.14-3.9h-1.22a13.34,13.34,0,0,1-10.31,4.3c-10.32,0-18.92-8.44-18.92-20.71s8.6-20.71,18.92-20.71a13.56,13.56,0,0,1,10.47,4.39v-21Zm-10.16,37.36c0-6.74-3.65-10.72-8.93-10.72-5,0-9.91,3.58-9.91,10.72s5,10.72,9.91,10.72C1154.81,164.13,1158.46,160.16,1158.46,153.41Z" transform="translate(-85.04 -49.48)"/><path class="cls-1" d="M758.27,210.14H742.92v46.79H732V210.14H716.68V200.07h41.59Z" transform="translate(-85.04 -49.48)"/><path class="cls-1" d="M794.82,239.71H765.17c1.22,6.17,6.25,8.44,10.64,8.44,5.52,0,7.88-3.41,7.88-3.41h10.23a19.33,19.33,0,0,1-18.43,12.59c-11,0-20.55-8.36-20.55-21s9.5-20.39,20.22-20.39C785.56,215.91,796.12,223.14,794.82,239.71Zm-29-8.21h18.27c-1.21-4.79-4.54-6.74-8.6-6.74A10.06,10.06,0,0,0,765.82,231.5Z" transform="translate(-85.04 -49.48)"/><path class="cls-1" d="M821.06,257.33a20.29,20.29,0,0,1-20.55-20.63,20.61,20.61,0,0,1,21-20.79,19.45,19.45,0,0,1,19.41,15.27h-11a9.42,9.42,0,0,0-8.61-5.44c-5.69,0-10.23,4.55-10.23,10.88s4.54,10.88,10.23,10.88a9.36,9.36,0,0,0,8.28-4.87h11.13C838,252.3,829.66,257.33,821.06,257.33Z" transform="translate(-85.04 -49.48)"/><path class="cls-1" d="M886.28,234.91v22H875.4V237.35c0-4,.65-12-6.66-12-3.58,0-10.48,1.87-10.48,12.51v19.09H847.38V199.26h10.31v21.28h1.38a15.77,15.77,0,0,1,11.7-4.63C881.25,215.91,886.28,223.71,886.28,234.91Z" transform="translate(-85.04 -49.48)"/><path class="cls-1" d="M934.85,234.91v22h-10.8V237.35c0-1.38,1-11.61-6.82-12-3.82-.24-10.64,1.87-10.64,12.51v19.09H895.87V216.32h8.28l1.38,5h1.38a15.58,15.58,0,0,1,12.35-5.36C929.74,215.91,934.85,223.71,934.85,234.91Z" transform="translate(-85.04 -49.48)"/><path class="cls-1" d="M941.84,236.7c0-13,10.07-20.79,21-20.79s20.54,7.88,20.54,20.63c0,12.91-9.91,20.79-20.87,20.79S941.84,249.45,941.84,236.7Zm30.86-.08c0-6.33-3.73-11.29-9.9-11.29s-10.32,5-10.32,11.29,4.14,11.29,10.32,11.29S972.7,243,972.7,236.62Z" transform="translate(-85.04 -49.48)"/><path class="cls-1" d="M1000.89,199.26v57.67H990.33V199.26Z" transform="translate(-85.04 -49.48)"/><path class="cls-1" d="M1008,236.7c0-13,10.07-20.79,21-20.79s20.55,7.88,20.55,20.63c0,12.91-9.91,20.79-20.87,20.79S1008,249.45,1008,236.7Zm30.86-.08c0-6.33-3.73-11.29-9.91-11.29s-10.31,5-10.31,11.29,4.14,11.29,10.31,11.29S1038.82,243,1038.82,236.62Z" transform="translate(-85.04 -49.48)"/><path class="cls-1" d="M1090.64,260.17c-.32,9.18-8.69,13.4-18.35,13.4-12.59,0-19.82-7.22-18-16l4.63-3.73a8.44,8.44,0,0,1-4.3-7.15c0-3.33,2.11-5.68,5-7.23a12.82,12.82,0,0,1-4.14-9.74c0-7.8,6-13.89,16.24-13.89a20.22,20.22,0,0,1,9.26,2,20.15,20.15,0,0,0,6.9-5.28l5,6.74a26.75,26.75,0,0,1-6.5,3,12.3,12.3,0,0,1,2.36,7.31c0,7.71-7.07,13.89-17.3,13.89a21.07,21.07,0,0,1-5.77-.74,2.37,2.37,0,0,0-1.22,2c0,2.93,4.47,2.44,7.23,2.44h5.69C1086.42,247.26,1090.89,253.35,1090.64,260.17Zm-10-.32c0-2.19-1.79-3.9-6.34-3.9-2.28,0-5.44,0-7.8-.08l-2.76,2.92c-.49,2,1.54,5.36,8.69,5.36C1077.73,264.15,1080.66,262.45,1080.66,259.85Zm-15.36-30.29c0,3.08,2.2,5.35,6.91,5.35s6.9-2.27,6.9-5.35-2.27-5.12-6.9-5.12S1065.3,226.47,1065.3,229.56Z" transform="translate(-85.04 -49.48)"/><path class="cls-1" d="M1139.78,216.32l-14.13,42.15c-2.27,6.74-5,15.1-17.21,15.1-7.32,0-11.13-2.92-12.35-4.46l5.12-7.23a9.86,9.86,0,0,0,6.33,2.52c3.41,0,5.69-1.38,6.58-4.14l1.14-3.33h-5.45l-14-40.61h11.29l10.23,29.56H1119l9.91-29.56Z" transform="translate(-85.04 -49.48)"/><path class="cls-1" d="M731.63,293.6v12.66h21.68v10H731.63v23.88H720.74V283.28h37.44V293.6Z" transform="translate(-85.04 -49.48)"/><path class="cls-1" d="M799.93,332.33v7.8H797.5c-4.71,0-8-1.7-9.42-5.2-2.44,3.33-6.5,5.61-12.84,5.61-9.17,0-15-4.71-15-12,0-12.67,17.3-13.81,25.1-14.22-.17-4.71-2.77-6.41-6.91-6.41-5.76,0-6.17,3.49-6.17,3.49H762.09c.73-7.23,6.66-12.26,16.57-12.26,9.66,0,16.48,4.79,16.48,16.57v10.8C795.14,331.2,796.85,332.33,799.93,332.33Zm-14.78-9.25v-.82c-7.39.82-14.7,1.71-14.7,5.93C770.45,334.37,784.5,333.88,785.15,323.08Z" transform="translate(-85.04 -49.48)"/><path class="cls-1" d="M824,340.54a20.29,20.29,0,0,1-20.55-20.63,20.61,20.61,0,0,1,21-20.79,19.46,19.46,0,0,1,19.41,15.27h-11a9.43,9.43,0,0,0-8.61-5.45c-5.68,0-10.23,4.55-10.23,10.89s4.55,10.88,10.23,10.88a9.38,9.38,0,0,0,8.29-4.87h11.12C841,335.5,832.59,340.54,824,340.54Z" transform="translate(-85.04 -49.48)"/><path class="cls-1" d="M850.06,288.15a6.91,6.91,0,0,1,7-6.9,6.83,6.83,0,0,1,6.82,6.9A6.91,6.91,0,0,1,857,295,7,7,0,0,1,850.06,288.15Zm12.18,52h-10.4V299.52h10.4Z" transform="translate(-85.04 -49.48)"/><path class="cls-1" d="M881.73,282.47v57.66H871.18V282.47Z" transform="translate(-85.04 -49.48)"/><path class="cls-1" d="M889.53,288.15a6.92,6.92,0,0,1,7-6.9,6.83,6.83,0,0,1,6.82,6.9,6.91,6.91,0,0,1-6.82,6.82A7,7,0,0,1,889.53,288.15Zm12.18,52H891.32V299.52h10.39Z" transform="translate(-85.04 -49.48)"/><path class="cls-1" d="M939.81,337.13a14.26,14.26,0,0,1-9.67,3.41c-7.79,0-14.54-5.28-14.54-13.48V308.21h-8.12v-7.95h4.06a4.44,4.44,0,0,0,4.63-4.8v-8.12H926v12.18h10.23v8.69H926v18.2a5,5,0,0,0,5.2,4.87,10.42,10.42,0,0,0,4.71-1.38Z" transform="translate(-85.04 -49.48)"/><path class="cls-1" d="M942.49,288.15a6.92,6.92,0,0,1,7-6.9,6.83,6.83,0,0,1,6.82,6.9,6.91,6.91,0,0,1-6.82,6.82A7,7,0,0,1,942.49,288.15Zm12.18,52H944.28V299.52h10.39Z" transform="translate(-85.04 -49.48)"/><path class="cls-1" d="M1002.11,322.92H972.46c1.22,6.17,6.25,8.44,10.64,8.44,5.52,0,7.88-3.41,7.88-3.41h10.23a19.33,19.33,0,0,1-18.43,12.59c-11,0-20.55-8.37-20.55-21s9.5-20.38,20.22-20.38C992.85,299.12,1003.41,306.35,1002.11,322.92Zm-29-8.21h18.27c-1.21-4.79-4.54-6.74-8.6-6.74A10.06,10.06,0,0,0,973.11,314.71Z" transform="translate(-85.04 -49.48)"/><path class="cls-1" d="M1024.28,307.73c-3.41,0-4.87,1.7-4.87,3.41,0,2.76,3.66,3.57,6.09,4.06,7.23,1.54,14.54,3.73,14.54,12.34,0,8.37-6.9,13-15.27,13-9.34,0-16.57-5.69-17-14.3h10c.24,2.44,1.86,5.61,6.82,5.61,4.14,0,5.12-2.19,5.12-3.9,0-3-2.85-3.9-5.61-4.55-4.79-1.06-15.11-3-15.11-12.26,0-8,7.64-12,15.52-12,9.09,0,15.1,5.52,15.59,12.34h-10C1029.73,310.08,1028.43,307.73,1024.28,307.73Z" transform="translate(-85.04 -49.48)"/><path class="cls-1" d="M1113.3,323.08a23.7,23.7,0,0,1-23.3,17.46c-14.87,0-25.67-12.18-25.67-28.83s10.72-28.84,25.58-28.84a23.86,23.86,0,0,1,23.39,17.47H1101c-2.11-4.55-5.93-6.74-11-6.74-9.26,0-14.54,7.55-14.54,18.11s5.36,18.11,14.7,18.11c5,0,8.69-2.19,10.8-6.74Z" transform="translate(-85.04 -49.48)"/><path class="cls-1" d="M1117.78,319.91c0-13,10.07-20.79,21-20.79s20.55,7.88,20.55,20.63c0,12.91-9.91,20.79-20.87,20.79S1117.78,332.66,1117.78,319.91Zm30.86-.08c0-6.34-3.74-11.29-9.91-11.29s-10.31,4.95-10.31,11.29,4.14,11.29,10.31,11.29S1148.64,326.16,1148.64,319.83Z" transform="translate(-85.04 -49.48)"/><path class="cls-1" d="M1205.09,299.52v40.61H1197l-1.46-4.55h-1.06c-1.62,2-5.2,5-11.86,5-10.8,0-16.32-7.64-16.32-19v-22h11V319.1c0,5,.41,12,7.39,12,3.58,0,9.43-1.87,9.43-12.51V299.52Z" transform="translate(-85.04 -49.48)"/><path class="cls-1" d="M1253.66,318.12v22h-10.8V320.56c0-1.38,1-11.62-6.82-12-3.82-.24-10.64,1.87-10.64,12.51v19.08h-10.72V299.52H1223l1.38,5h1.38a15.58,15.58,0,0,1,12.35-5.36C1248.55,299.12,1253.66,306.92,1253.66,318.12Z" transform="translate(-85.04 -49.48)"/><path class="cls-1" d="M1281.2,340.54a20.29,20.29,0,0,1-20.55-20.63,20.61,20.61,0,0,1,21-20.79A19.46,19.46,0,0,1,1301,314.39h-11a9.43,9.43,0,0,0-8.61-5.45c-5.68,0-10.23,4.55-10.23,10.89s4.55,10.88,10.23,10.88a9.38,9.38,0,0,0,8.29-4.87h11.12C1298.17,335.5,1289.81,340.54,1281.2,340.54Z" transform="translate(-85.04 -49.48)"/><path class="cls-1" d="M1307.28,288.15a6.91,6.91,0,0,1,7-6.9,6.83,6.83,0,0,1,6.82,6.9,6.91,6.91,0,0,1-6.82,6.82A7,7,0,0,1,1307.28,288.15Zm12.18,52h-10.4V299.52h10.4Z" transform="translate(-85.04 -49.48)"/><path class="cls-1" d="M1339,282.47v57.66H1328.4V282.47Z" transform="translate(-85.04 -49.48)"/><path class="cls-1" d="M180.47,228.5c21.65-2.2,41.66-13.88,47.72-34.16v51.8C221.08,234.14,204.73,228.56,180.47,228.5Zm52,35.05c0,18.88-10.83,29.73-31.8,33.59l27.55,36.09V317.59h39.12V251.05H230.47A37.1,37.1,0,0,1,232.44,263.55Zm-52-12.5H149.93v25.16h30.54c12.56,0,17.65-5,17.65-12.66S193,251.05,180.47,251.05Zm81.1-22.55h44.87l-44.87-47.92ZM371.33,85.35V371.64H85V85.35Zm-31.51,31.51H306.44l-44.87,47.79V116.86H196.72V180.3c0,13.58-10.06,21.46-23.4,21.46s-23.39-7.88-23.39-21.46V116.86H116.55v63.92c0,28.63,23.11,45.05,49.18,47.72H116.55V340.14h33.38V298.76h14.58l30.85,41.38H339.82V317.59H300.7V251.05h39.12V221.59L292,172.6l47.84-48.84Z" transform="translate(-85.04 -49.48)"/><path class="cls-1" d="M398.56,85.4,371.33,49.48V371.64H657.59V85.4ZM381.35,361.62V79.29L386,85.4l4.6,6.07,3,4L568.91,325.8l18,23.65V212.12h60.67v149.5ZM576.88,202.09V319.73L406.18,95.42H647.57V202.09Z" transform="translate(-85.04 -49.48)"/></svg>