<?xml version="1.0" encoding="UTF-8" standalone="no"?>
<!DOCTYPE svg PUBLIC "-//W3C//DTD SVG 1.1//EN" "http://www.w3.org/Graphics/SVG/1.1/DTD/svg11.dtd">
<!-- Created with Vectornator (http://vectornator.io/) -->
<svg height="100%" stroke-miterlimit="10" style="fill-rule:nonzero;clip-rule:evenodd;stroke-linecap:round;stroke-linejoin:round;" version="1.1" viewBox="0 0 694.363 180.895" width="100%" xml:space="preserve" xmlns="http://www.w3.org/2000/svg" xmlns:xlink="http://www.w3.org/1999/xlink">
<defs/>
<g id="Layer_1-2">
<path d="M33.7406 95.7797C33.7406 81.7997 15.8206 80.5297 15.8206 74.3497C15.8206 72.3797 16.8706 71.3997 18.3506 71.3997C20.7406 71.3997 21.2306 73.5097 21.0906 77.1597L33.6006 77.1597C34.0206 69.3597 30.7906 61.1397 18.6306 61.1397C7.53055 61.1397 2.75055 67.6797 2.75055 75.5397C2.75055 88.8197 20.6706 90.7197 20.6706 97.0397C20.6706 99.0097 19.8306 99.9897 17.7206 99.9897C15.6106 99.9897 14.2106 98.4397 14.4206 93.5997L1.83055 93.5997C1.27055 104.91 6.12055 110.25 18.2706 110.25C29.2306 110.25 33.7306 103.15 33.7306 95.7697M80.7006 109.05L80.7006 62.2497L63.1306 62.2497L59.6906 78.7597L58.5006 85.0897L57.2306 78.7597L53.7206 62.2497L35.4506 62.2497L35.4506 109.05L47.1906 109.05L47.1906 83.7497L48.8106 91.5497L52.3206 109.05L61.5206 109.05L65.3806 91.5497L67.1406 83.7497L67.1406 109.05L80.7006 109.05ZM116.781 109.05L107.511 62.2497L91.3506 62.2497L81.8606 109.05L94.5806 109.05L95.7006 102.51L102.021 102.51L102.931 109.05L116.771 109.05L116.781 109.05ZM100.901 93.8697L97.1006 93.8697L99.2806 79.8197L100.901 93.8697ZM151.441 109.05L151.441 108.84C150.601 106.59 149.821 104.2 149.821 101.25L149.821 93.0997C149.821 90.0097 147.851 87.1997 143.641 86.4297C148.071 85.3097 149.611 82.5597 149.611 79.6797L149.611 72.9297C149.611 66.4697 144.271 62.2497 136.751 62.2497L117.921 62.2497L117.921 109.05L131.971 109.05L131.971 91.3397L133.871 91.3397C135.981 91.3397 136.541 92.7497 136.541 94.3597L136.541 101.81C136.541 105.18 137.521 109.05 139.491 109.05L151.441 109.05ZM136.191 80.2397C136.191 81.9297 135.491 82.5597 134.081 82.5597L131.971 82.5597L131.971 72.2297L134.081 72.2297C135.491 72.2297 136.191 72.8597 136.191 74.5497L136.191 80.2397ZM183.351 73.5597L183.351 62.2497L151.101 62.2497L151.101 73.5597L160.171 73.5597L160.171 109.05L174.291 109.05L174.291 73.5597L183.361 73.5597L183.351 73.5597ZM213.161 109.05L213.161 97.6697L198.971 97.6697L198.971 90.1497L208.031 90.1497L208.031 80.2397L198.971 80.2397L198.971 73.0697L213.161 73.0697L213.161 62.2497L184.841 62.2497L184.841 109.05L213.161 109.05ZM248.611 109.05L248.611 108.84C247.771 106.59 246.991 104.2 246.991 101.25L246.991 93.0997C246.991 90.0097 245.021 87.1997 240.811 86.4297C245.241 85.3097 246.781 82.5597 246.781 79.6797L246.781 72.9297C246.781 66.4697 241.441 62.2497 233.921 62.2497L215.091 62.2497L215.091 109.05L229.141 109.05L229.141 91.3397L231.041 91.3397C233.151 91.3397 233.711 92.7497 233.711 94.3597L233.711 101.81C233.711 105.18 234.691 109.05 236.661 109.05L248.611 109.05ZM233.361 80.2397C233.361 81.9297 232.661 82.5597 231.251 82.5597L229.141 82.5597L229.141 72.2297L231.251 72.2297C232.661 72.2297 233.361 72.8597 233.361 74.5497L233.361 80.2397Z" fill="#fecb00" fill-rule="nonzero" opacity="1" stroke="none"/>
<path d="M48.2806 55.6497L48.2806 8.85967L30.7106 8.85967L27.2706 25.3697L26.0806 31.6897L24.8106 25.3697L21.3006 8.85967L3.03055 8.85967L3.03055 55.6597L14.7606 55.6597L14.7606 30.3597L16.3706 38.1597L19.8806 55.6597L29.0906 55.6597L32.9506 38.1597L34.7106 30.3597L34.7106 55.6597L48.2706 55.6597L48.2806 55.6497ZM84.3606 55.6497L75.0806 8.84967L58.9206 8.84967L49.4306 55.6497L62.1506 55.6497L63.2706 49.1197L69.5906 49.1197L70.5006 55.6497L84.3406 55.6497L84.3606 55.6497ZM68.4806 40.4697L64.6906 40.4697L66.8706 26.4197L68.4806 40.4697ZM118.601 41.4497L118.601 24.2297C118.601 15.4497 113.751 8.83967 102.301 8.83967L85.5106 8.83967L85.5106 55.6397L102.301 55.6397C113.751 55.6397 118.601 50.1597 118.601 41.4497M104.551 40.8197C104.551 43.4197 103.921 44.8997 101.391 44.8997L99.5606 44.8997L99.5606 19.5297L101.391 19.5297C103.921 19.5297 104.551 21.0797 104.551 23.6797L104.551 40.8297L104.551 40.8197ZM149.141 55.6497L149.141 44.2697L134.951 44.2697L134.951 36.7497L144.021 36.7497L144.021 26.8397L134.951 26.8397L134.951 19.6697L149.141 19.6697L149.141 8.84967L120.821 8.84967L120.821 55.6497L149.141 55.6497Z" fill="#fecb00" fill-rule="nonzero" opacity="1" stroke="none"/>
<path d="M1.86055 144.32L5.56055 144.32L5.56055 144.32L5.56055 173.52L5.56055 173.52L1.86055 173.52L1.86055 173.52L1.86055 144.32L1.86055 144.32Z" fill="#0c141c" fill-rule="nonzero" opacity="1" stroke="none"/>
<path d="M16.2506 151.23L16.2506 173.53L12.5506 173.53L12.5506 144.32L15.4306 144.32L33.5306 167.07L33.5306 144.37L37.2306 144.37L37.2306 173.53L34.1006 173.53L16.2506 151.23Z" fill="#0c141c" fill-rule="nonzero" opacity="1" stroke="none"/>
<path d="M47.9206 151.23L47.9206 173.53L44.2206 173.53L44.2206 144.32L47.1006 144.32L65.2006 167.07L65.2006 144.37L68.9006 144.37L68.9006 173.53L65.7706 173.53L47.9206 151.23Z" fill="#0c141c" fill-rule="nonzero" opacity="1" stroke="none"/>
<path d="M77.7406 158.92C77.7406 160.4 77.9806 161.83 78.4606 163.22C78.9406 164.6 79.6206 165.83 80.5006 166.9C81.3806 167.97 82.4306 168.82 83.6706 169.45C84.9006 170.08 86.2706 170.4 87.7806 170.4C89.2906 170.4 90.7406 170.06 91.9806 169.39C93.2106 168.72 94.2606 167.84 95.1306 166.76C95.9906 165.68 96.6506 164.45 97.1006 163.08C97.5506 161.71 97.7806 160.32 97.7806 158.93C97.7806 157.45 97.5406 156.02 97.0606 154.63C96.5806 153.24 95.8906 152.02 95.0006 150.97C94.1106 149.92 93.0506 149.07 91.8306 148.44C90.6106 147.81 89.2606 147.49 87.7806 147.49C86.2206 147.49 84.8206 147.82 83.5906 148.48C82.3606 149.14 81.3106 150 80.4406 151.07C79.5806 152.14 78.9106 153.36 78.4506 154.73C77.9806 156.1 77.7506 157.5 77.7506 158.92M87.7406 173.73C85.6806 173.73 83.8106 173.31 82.1306 172.48C80.4406 171.64 79.0006 170.53 77.7906 169.15C76.5806 167.77 75.6506 166.18 74.9906 164.4C74.3306 162.62 74.0006 160.8 74.0006 158.93C74.0006 157.06 74.3506 155.12 75.0506 153.34C75.7506 151.56 76.7206 149.98 77.9506 148.61C79.1806 147.24 80.6406 146.15 82.3306 145.34C84.0206 144.53 85.8506 144.13 87.8206 144.13C89.7906 144.13 91.7406 144.56 93.4106 145.43C95.0806 146.29 96.5206 147.42 97.7306 148.82C98.9406 150.22 99.8706 151.8 100.531 153.57C101.191 155.34 101.521 157.14 101.521 158.98C101.521 160.93 101.171 162.79 100.471 164.57C99.7706 166.35 98.8106 167.92 97.5906 169.28C96.3706 170.64 94.9206 171.72 93.2306 172.53C91.5406 173.34 89.7106 173.74 87.7406 173.74" fill="#0c141c" fill-rule="nonzero" opacity="1" stroke="none"/>
<path d="M106.371 144.32L116.031 168.88L125.661 144.32L129.561 144.32L117.641 173.53L114.431 173.53L102.461 144.32L106.371 144.32Z" fill="#0c141c" fill-rule="nonzero" opacity="1" stroke="none"/>
<path d="M146.841 162.09L141.581 148.6L136.151 162.09L146.841 162.09ZM140.011 144.32L143.141 144.32L155.071 173.52L151.121 173.52L147.661 164.96L135.401 164.96L131.991 173.52L128.041 173.52L140.011 144.32Z" fill="#0c141c" fill-rule="nonzero" opacity="1" stroke="none"/>
<path d="M177.271 147.61L167.201 147.61L167.201 173.53L163.501 173.53L163.501 147.61L153.421 147.61L153.421 144.32L177.271 144.32L177.271 147.61Z" fill="#0c141c" fill-rule="nonzero" opacity="1" stroke="none"/>
<path d="M181.471 144.32L185.171 144.32L185.171 144.32L185.171 173.52L185.171 173.52L181.471 173.52L181.471 173.52L181.471 144.32L181.471 144.32Z" fill="#0c141c" fill-rule="nonzero" opacity="1" stroke="none"/>
<path d="M194.011 158.92C194.011 160.4 194.251 161.83 194.731 163.22C195.211 164.6 195.891 165.83 196.771 166.9C197.651 167.97 198.701 168.82 199.941 169.45C201.171 170.08 202.541 170.4 204.051 170.4C205.561 170.4 207.011 170.06 208.241 169.39C209.471 168.72 210.521 167.84 211.391 166.76C212.251 165.68 212.911 164.45 213.361 163.08C213.811 161.71 214.041 160.32 214.041 158.93C214.041 157.45 213.801 156.02 213.321 154.63C212.841 153.24 212.151 152.02 211.261 150.97C210.371 149.92 209.311 149.07 208.091 148.44C206.871 147.81 205.521 147.49 204.041 147.49C202.481 147.49 201.081 147.82 199.841 148.48C198.611 149.14 197.561 150 196.691 151.07C195.831 152.14 195.161 153.36 194.701 154.73C194.231 156.1 194.001 157.5 194.001 158.92M203.991 173.73C201.931 173.73 200.061 173.31 198.381 172.48C196.691 171.64 195.251 170.53 194.041 169.15C192.831 167.77 191.901 166.18 191.241 164.4C190.581 162.62 190.251 160.8 190.251 158.93C190.251 157.06 190.601 155.12 191.301 153.34C192.001 151.56 192.971 149.98 194.201 148.61C195.431 147.24 196.891 146.15 198.581 145.34C200.271 144.53 202.101 144.13 204.071 144.13C206.041 144.13 207.991 144.56 209.661 145.43C211.331 146.29 212.771 147.42 213.981 148.82C215.191 150.22 216.121 151.8 216.781 153.57C217.441 155.34 217.771 157.14 217.771 158.98C217.771 160.93 217.421 162.79 216.721 164.57C216.021 166.35 215.061 167.92 213.841 169.28C212.621 170.64 211.171 171.72 209.481 172.53C207.791 173.34 205.961 173.74 203.991 173.74" fill="#0c141c" fill-rule="nonzero" opacity="1" stroke="none"/>
<path d="M226.631 151.23L226.631 173.53L222.931 173.53L222.931 144.32L225.801 144.32L243.901 167.07L243.901 144.37L247.601 144.37L247.601 173.53L244.481 173.53L226.631 151.23Z" fill="#0c141c" fill-rule="nonzero" opacity="1" stroke="none"/>
<path d="M366.421 69.2697C366.161 68.9897 365.791 68.6897 365.301 68.3597C364.811 68.0397 364.241 67.7397 363.581 67.4497C362.931 67.1697 362.201 66.9397 361.421 66.7497C360.631 66.5697 359.831 66.4797 359.011 66.4797C357.181 66.4797 355.841 66.8097 354.981 67.4797C354.121 68.1497 353.691 69.0697 353.691 70.2597C353.691 70.9297 353.831 71.4697 354.091 71.8997C354.361 72.3197 354.781 72.6997 355.341 73.0197C355.901 73.3397 356.611 73.6297 357.461 73.8697C358.311 74.1097 359.301 74.3797 360.431 74.6597C361.821 74.9897 363.071 75.3697 364.191 75.7797C365.311 76.1897 366.251 76.6897 367.021 77.2797C367.791 77.8697 368.391 78.5997 368.811 79.4597C369.231 80.3197 369.451 81.3697 369.451 82.5997C369.451 83.9897 369.191 85.1797 368.661 86.1897C368.131 87.1897 367.411 88.0097 366.501 88.6397C365.591 89.2697 364.531 89.7297 363.321 90.0297C362.111 90.3197 360.811 90.4697 359.431 90.4697C357.351 90.4697 355.341 90.1597 353.391 89.5297C351.451 88.8997 349.701 87.9797 348.131 86.7697L350.101 83.0697C350.431 83.3997 350.921 83.7797 351.551 84.1897C352.181 84.5997 352.911 84.9797 353.751 85.3297C354.581 85.6797 355.491 85.9697 356.471 86.2197C357.451 86.4597 358.461 86.5897 359.521 86.5897C361.221 86.5897 362.531 86.2997 363.451 85.6997C364.381 85.1097 364.841 84.2397 364.841 83.0797C364.841 82.3897 364.671 81.8097 364.321 81.3497C363.971 80.8897 363.481 80.4797 362.841 80.1397C362.201 79.7897 361.411 79.4797 360.491 79.1997C359.571 78.9197 358.511 78.6197 357.331 78.3097C355.971 77.9497 354.781 77.5697 353.761 77.1697C352.741 76.7697 351.901 76.2897 351.231 75.7197C350.561 75.1497 350.051 74.4897 349.711 73.7297C349.361 72.9697 349.191 72.0497 349.191 70.9697C349.191 69.6297 349.451 68.4497 349.961 67.3997C350.471 66.3597 351.171 65.4897 352.061 64.7797C352.951 64.0697 353.991 63.5397 355.201 63.1797C356.411 62.8197 357.721 62.6397 359.131 62.6397C360.981 62.6397 362.691 62.9397 364.261 63.5297C365.831 64.1197 367.201 64.8497 368.381 65.7297L366.411 69.2797L366.421 69.2697Z" fill="#13181d" fill-rule="nonzero" opacity="1" stroke="none"/>
<path d="M396.801 90.2097L396.801 70.5097L388.671 85.4297L386.271 85.4297L378.101 70.5097L378.101 90.2097L373.781 90.2097L373.781 62.8297L378.411 62.8297L387.471 79.5697L396.531 62.8297L401.161 62.8297L401.161 90.2097L396.801 90.2097Z" fill="#13181d" fill-rule="nonzero" opacity="1" stroke="none"/>
<path d="M421.671 79.5697L417.271 67.8097L412.721 79.5697L421.661 79.5697L421.671 79.5697ZM415.391 62.8297L419.171 62.8297L429.971 90.2097L425.421 90.2097L422.531 82.7697L411.961 82.7697L409.111 90.2097L404.521 90.2097L415.391 62.8297Z" fill="#13181d" fill-rule="nonzero" opacity="1" stroke="none"/>
<path d="M437.671 76.8697L445.231 76.8697C445.851 76.8697 446.411 76.7397 446.911 76.4697C447.411 76.1997 447.841 75.8297 448.201 75.3497C448.561 74.8697 448.841 74.3297 449.051 73.7097C449.261 73.0897 449.361 72.4397 449.361 71.7397C449.361 71.0397 449.241 70.3897 448.991 69.7697C448.751 69.1497 448.421 68.6097 448.031 68.1497C447.631 67.6897 447.171 67.3197 446.641 67.0497C446.111 66.7797 445.571 66.6497 445.001 66.6497L437.671 66.6497L437.671 76.8697ZM433.351 90.2097L433.351 62.8297L445.261 62.8297C446.491 62.8297 447.631 63.0897 448.671 63.5997C449.711 64.1097 450.601 64.7897 451.351 65.6197C452.091 66.4597 452.681 67.4097 453.101 68.4697C453.521 69.5397 453.741 70.6197 453.741 71.7297C453.741 72.6597 453.611 73.5397 453.351 74.3897C453.091 75.2397 452.731 76.0197 452.271 76.7397C451.811 77.4597 451.241 78.0797 450.571 78.6097C449.901 79.1397 449.171 79.5297 448.371 79.7897L454.811 90.1997L449.911 90.1997L443.971 80.6797L437.651 80.6797L437.651 90.1997L433.331 90.1997L433.351 90.2097Z" fill="#13181d" fill-rule="nonzero" opacity="1" stroke="none"/>
<path d="M478.511 66.6497L469.411 66.6497L469.411 90.2097L465.051 90.2097L465.051 66.6497L455.911 66.6497L455.911 62.8297L478.511 62.8297L478.511 66.6497Z" fill="#13181d" fill-rule="nonzero" opacity="1" stroke="none"/>
<path d="M373.241 131.34L373.241 111.64L365.111 126.56L362.721 126.56L354.541 111.64L354.541 131.34L350.221 131.34L350.221 103.96L354.851 103.96L363.911 120.7L372.971 103.96L377.601 103.96L377.601 131.34L373.241 131.34Z" fill="#13181d" fill-rule="nonzero" opacity="1" stroke="none"/>
<path d="M398.111 120.7L393.711 108.94L389.161 120.7L398.101 120.7L398.111 120.7ZM391.831 103.96L395.611 103.96L406.411 131.34L401.861 131.34L398.971 123.9L388.401 123.9L385.551 131.34L380.961 131.34L391.831 103.96Z" fill="#13181d" fill-rule="nonzero" opacity="1" stroke="none"/>
<path d="M414.111 112.06L414.111 131.34L409.791 131.34L409.791 103.96L413.191 103.96L428.841 123.7L428.841 104L433.201 104L433.201 131.34L429.611 131.34L414.111 112.06Z" fill="#13181d" fill-rule="nonzero" opacity="1" stroke="none"/>
<path d="M450.781 127.64C452.221 127.64 453.411 127.36 454.371 126.79C455.321 126.22 456.091 125.49 456.661 124.57C457.241 123.66 457.651 122.62 457.891 121.45C458.131 120.28 458.261 119.08 458.261 117.85L458.261 103.97L462.621 103.97L462.621 117.85C462.621 119.73 462.401 121.49 461.961 123.15C461.521 124.81 460.831 126.26 459.881 127.51C458.931 128.76 457.701 129.74 456.201 130.46C454.701 131.18 452.891 131.54 450.781 131.54C448.671 131.54 446.751 131.16 445.251 130.4C443.751 129.64 442.531 128.63 441.611 127.35C440.681 126.08 440.021 124.62 439.601 122.97C439.191 121.32 438.981 119.61 438.981 117.84L438.981 103.96L443.301 103.96L443.301 117.84C443.301 119.1 443.421 120.32 443.671 121.48C443.911 122.65 444.331 123.69 444.901 124.6C445.481 125.51 446.251 126.24 447.211 126.8C448.171 127.35 449.361 127.63 450.781 127.63" fill="#13181d" fill-rule="nonzero" opacity="1" stroke="none"/>
<path d="M468.361 131.34L468.361 103.96L486.601 103.96L486.601 107.78L472.681 107.78L472.681 115.95L484.331 115.95L484.331 119.54L472.681 119.54L472.681 131.34L468.361 131.34Z" fill="#13181d" fill-rule="nonzero" opacity="1" stroke="none"/>
<path d="M502.031 120.7L497.631 108.94L493.081 120.7L502.021 120.7L502.031 120.7ZM495.751 103.96L499.531 103.96L510.331 131.34L505.781 131.34L502.891 123.9L492.321 123.9L489.471 131.34L484.881 131.34L495.751 103.96Z" fill="#13181d" fill-rule="nonzero" opacity="1" stroke="none"/>
<path d="M510.971 117.46C510.971 115.82 511.261 114.18 511.861 112.54C512.451 110.91 513.321 109.44 514.461 108.14C515.601 106.84 517.001 105.79 518.641 105C520.291 104.2 522.151 103.8 524.231 103.8C526.721 103.8 528.861 104.35 530.631 105.46C532.401 106.57 533.741 108.01 534.641 109.78L531.251 112.05C530.861 111.23 530.401 110.53 529.861 109.97C529.321 109.4 528.731 108.95 528.091 108.62C527.451 108.29 526.781 108.05 526.081 107.91C525.391 107.77 524.721 107.7 524.071 107.7C522.631 107.7 521.371 107.99 520.291 108.57C519.211 109.15 518.301 109.91 517.571 110.86C516.841 111.81 516.281 112.88 515.911 114.06C515.541 115.24 515.351 116.42 515.351 117.61C515.351 118.95 515.571 120.22 516.001 121.43C516.441 122.64 517.051 123.7 517.831 124.63C518.621 125.55 519.551 126.29 520.631 126.85C521.711 127.4 522.891 127.68 524.181 127.68C524.851 127.68 525.541 127.6 526.241 127.43C526.951 127.26 527.631 126.99 528.281 126.62C528.941 126.25 529.541 125.78 530.091 125.21C530.641 124.65 531.101 123.96 531.461 123.17L535.051 125.21C534.611 126.24 534.001 127.15 533.201 127.93C532.401 128.71 531.501 129.38 530.501 129.91C529.501 130.45 528.441 130.86 527.321 131.15C526.201 131.43 525.101 131.57 524.021 131.57C522.091 131.57 520.331 131.16 518.741 130.34C517.151 129.52 515.771 128.44 514.611 127.12C513.451 125.8 512.551 124.29 511.911 122.61C511.271 120.93 510.951 119.21 510.951 117.46" fill="#13181d" fill-rule="nonzero" opacity="1" stroke="none"/>
<path d="M558.901 107.78L549.801 107.78L549.801 131.34L545.441 131.34L545.441 107.78L536.311 107.78L536.311 103.96L558.901 103.96L558.901 107.78Z" fill="#13181d" fill-rule="nonzero" opacity="1" stroke="none"/>
<path d="M573.981 127.64C575.421 127.64 576.611 127.36 577.571 126.79C578.521 126.22 579.291 125.49 579.861 124.57C580.441 123.66 580.851 122.62 581.091 121.45C581.331 120.28 581.461 119.08 581.461 117.85L581.461 103.97L585.821 103.97L585.821 117.85C585.821 119.73 585.601 121.49 585.161 123.15C584.721 124.81 584.031 126.26 583.081 127.51C582.131 128.76 580.901 129.74 579.401 130.46C577.901 131.18 576.091 131.54 573.981 131.54C571.871 131.54 569.951 131.16 568.451 130.4C566.951 129.64 565.731 128.63 564.811 127.35C563.881 126.08 563.221 124.62 562.801 122.97C562.391 121.32 562.181 119.61 562.181 117.84L562.181 103.96L566.501 103.96L566.501 117.84C566.501 119.1 566.621 120.32 566.871 121.48C567.111 122.65 567.531 123.69 568.101 124.6C568.681 125.51 569.451 126.24 570.411 126.8C571.371 127.35 572.561 127.63 573.981 127.63" fill="#13181d" fill-rule="nonzero" opacity="1" stroke="none"/>
<path d="M595.881 118L603.441 118C604.061 118 604.621 117.87 605.121 117.6C605.621 117.33 606.051 116.96 606.411 116.48C606.771 116 607.051 115.46 607.261 114.84C607.471 114.22 607.571 113.57 607.571 112.87C607.571 112.17 607.451 111.52 607.201 110.9C606.961 110.28 606.631 109.74 606.241 109.28C605.841 108.82 605.381 108.45 604.851 108.18C604.321 107.91 603.781 107.78 603.211 107.78L595.881 107.78L595.881 118ZM591.561 131.34L591.561 103.96L603.471 103.96C604.701 103.96 605.841 104.22 606.881 104.73C607.921 105.24 608.811 105.92 609.561 106.75C610.301 107.59 610.891 108.54 611.311 109.6C611.731 110.67 611.951 111.75 611.951 112.86C611.951 113.79 611.821 114.67 611.561 115.52C611.301 116.37 610.941 117.15 610.481 117.87C610.021 118.59 609.451 119.21 608.781 119.74C608.111 120.27 607.381 120.66 606.581 120.92L613.021 131.33L608.121 131.33L602.181 121.81L595.861 121.81L595.861 131.33L591.541 131.33L591.561 131.34Z" fill="#13181d" fill-rule="nonzero" opacity="1" stroke="none"/>
<path d="M617.051 103.96L621.371 103.96L621.371 103.96L621.371 131.34L621.371 131.34L617.051 131.34L617.051 131.34L617.051 103.96L617.051 103.96Z" fill="#13181d" fill-rule="nonzero" opacity="1" stroke="none"/>
<path d="M631.851 112.06L631.851 131.34L627.531 131.34L627.531 103.96L630.931 103.96L646.581 123.7L646.581 104L650.941 104L650.941 131.34L647.351 131.34L631.851 112.06Z" fill="#13181d" fill-rule="nonzero" opacity="1" stroke="none"/>
<path d="M676.271 127.95C673.961 130.34 671.301 131.54 668.291 131.54C666.461 131.54 664.771 131.16 663.201 130.4C661.631 129.64 660.271 128.62 659.111 127.33C657.951 126.04 657.051 124.55 656.391 122.86C655.731 121.16 655.411 119.39 655.411 117.54C655.411 115.69 655.741 113.93 656.391 112.26C657.051 110.59 657.951 109.13 659.111 107.87C660.271 106.61 661.641 105.61 663.231 104.88C664.821 104.15 666.561 103.78 668.441 103.78C671.061 103.78 673.261 104.33 675.031 105.42C676.801 106.51 678.141 107.96 679.041 109.76L675.721 112.15C674.981 110.66 673.951 109.54 672.641 108.8C671.331 108.05 669.891 107.68 668.321 107.68C667.031 107.68 665.871 107.96 664.811 108.51C663.761 109.06 662.861 109.8 662.111 110.71C661.361 111.62 660.791 112.68 660.391 113.89C659.991 115.1 659.791 116.36 659.791 117.67C659.791 119.06 660.021 120.36 660.461 121.56C660.911 122.77 661.531 123.82 662.311 124.72C663.091 125.62 664.031 126.33 665.111 126.86C666.191 127.39 667.361 127.65 668.621 127.65C670.011 127.65 671.341 127.33 672.611 126.69C673.881 126.05 675.101 125.03 676.251 123.64L676.251 120.71L670.501 120.71L670.501 117.51L679.871 117.51L679.871 131.35L676.251 131.35L676.251 127.96L676.271 127.95Z" fill="#13181d" fill-rule="nonzero" opacity="1" stroke="none"/>
<path d="M368.881 158.74C368.881 157.3 368.681 155.98 368.281 154.77C367.881 153.56 367.301 152.53 366.521 151.67C365.751 150.81 364.811 150.13 363.711 149.65C362.601 149.16 361.341 148.92 359.931 148.92L354.531 148.92L354.531 168.66L359.931 168.66C361.371 168.66 362.651 168.41 363.771 167.91C364.891 167.41 365.831 166.71 366.581 165.83C367.341 164.94 367.911 163.9 368.301 162.69C368.691 161.48 368.881 160.17 368.881 158.76M350.221 172.49L350.221 145.11L359.941 145.11C362.151 145.11 364.091 145.47 365.741 146.19C367.401 146.91 368.791 147.89 369.901 149.12C371.021 150.35 371.861 151.8 372.431 153.46C372.991 155.12 373.281 156.88 373.281 158.76C373.281 160.84 372.961 162.73 372.331 164.41C371.701 166.09 370.811 167.53 369.651 168.73C368.491 169.93 367.091 170.85 365.451 171.51C363.801 172.16 361.971 172.49 359.941 172.49L350.221 172.49Z" fill="#13181d" fill-rule="nonzero" opacity="1" stroke="none"/>
<path d="M391.211 161.83L386.811 150.07L382.261 161.83L391.201 161.83L391.211 161.83ZM384.931 145.09L388.711 145.09L399.511 172.47L394.961 172.47L392.071 165.03L381.501 165.03L378.651 172.47L374.061 172.47L384.931 145.09Z" fill="#13181d" fill-rule="nonzero" opacity="1" stroke="none"/>
<path d="M420.281 148.91L411.181 148.91L411.181 172.47L406.831 172.47L406.831 148.91L397.691 148.91L397.691 145.09L420.281 145.09L420.281 148.91Z" fill="#13181d" fill-rule="nonzero" opacity="1" stroke="none"/>
<path d="M435.591 161.83L431.191 150.07L426.641 161.83L435.581 161.83L435.591 161.83ZM429.311 145.09L433.091 145.09L443.891 172.47L439.341 172.47L436.451 165.03L425.891 165.03L423.041 172.47L418.451 172.47L429.321 145.09L429.311 145.09Z" fill="#13181d" fill-rule="nonzero" opacity="1" stroke="none"/>
<path d="M478.081 145.09L478.081 172.47L473.731 172.47L473.731 160.4L459.921 160.4L459.921 172.47L455.601 172.47L455.601 145.09L459.921 145.09L459.921 156.54L473.731 156.54L473.731 145.09L478.081 145.09Z" fill="#13181d" fill-rule="nonzero" opacity="1" stroke="none"/>
<path d="M495.661 168.77C497.101 168.77 498.291 168.49 499.251 167.92C500.201 167.35 500.971 166.62 501.541 165.7C502.121 164.79 502.531 163.75 502.771 162.58C503.011 161.41 503.141 160.21 503.141 158.98L503.141 145.1L507.501 145.1L507.501 158.98C507.501 160.86 507.281 162.62 506.841 164.28C506.401 165.94 505.711 167.39 504.761 168.64C503.811 169.89 502.581 170.87 501.081 171.59C499.581 172.31 497.771 172.67 495.661 172.67C493.551 172.67 491.631 172.29 490.131 171.53C488.631 170.77 487.411 169.76 486.491 168.48C485.561 167.21 484.901 165.75 484.481 164.1C484.071 162.45 483.861 160.74 483.861 158.97L483.861 145.09L488.181 145.09L488.181 158.97C488.181 160.23 488.301 161.45 488.551 162.61C488.791 163.78 489.211 164.82 489.781 165.73C490.361 166.64 491.131 167.37 492.091 167.93C493.051 168.48 494.241 168.76 495.661 168.76" fill="#13181d" fill-rule="nonzero" opacity="1" stroke="none"/>
<path d="M530.331 164.6C530.331 164.03 530.231 163.49 530.041 162.98C529.851 162.47 529.591 162.02 529.271 161.63C528.951 161.24 528.561 160.93 528.091 160.7C527.631 160.47 527.131 160.35 526.591 160.35L517.571 160.35L517.571 168.72L526.321 168.72C526.891 168.72 527.411 168.61 527.901 168.39C528.391 168.17 528.811 167.88 529.171 167.5C529.531 167.12 529.811 166.69 530.021 166.19C530.231 165.69 530.331 165.15 530.331 164.59M517.571 148.82L517.571 156.88L525.511 156.88C526.051 156.88 526.541 156.78 526.991 156.57C527.441 156.37 527.841 156.09 528.181 155.74C528.531 155.39 528.801 154.98 528.991 154.49C529.181 154 529.281 153.46 529.281 152.87C529.281 151.69 528.951 150.72 528.281 149.96C527.611 149.2 526.761 148.82 525.731 148.82L517.561 148.82L517.571 148.82ZM534.771 165.4C534.771 166.51 534.541 167.5 534.101 168.37C533.651 169.24 533.051 169.98 532.291 170.59C531.531 171.19 530.641 171.66 529.611 171.98C528.581 172.3 527.491 172.46 526.331 172.46L513.261 172.46L513.261 145.08L527.371 145.08C528.321 145.08 529.181 145.29 529.951 145.7C530.721 146.11 531.381 146.64 531.921 147.3C532.461 147.95 532.881 148.7 533.171 149.54C533.471 150.38 533.611 151.22 533.611 152.07C533.611 153.41 533.271 154.66 532.591 155.83C531.911 157 530.941 157.87 529.681 158.43C531.251 158.89 532.491 159.73 533.401 160.96C534.311 162.18 534.771 163.67 534.771 165.41" fill="#13181d" fill-rule="nonzero" opacity="1" stroke="none"/>
<path d="M303.299 7.58137C303.299 6.00774 302.023 4.7392 300.457 4.7392C298.891 4.7392 297.615 6.01577 297.615 7.58137C297.615 8.76962 298.337 9.78124 299.373 10.2068L299.373 175.125L301.549 175.125L301.549 10.2148C302.576 9.78927 303.307 8.76962 303.307 7.5894L303.299 7.58137Z" fill="#0c141c" fill-rule="nonzero" opacity="1" stroke="none"/>
<path d="M249.381 122.04C247.901 122.04 246.641 122.94 246.111 124.23L1.29055 124.23L1.29055 126.94L246.111 126.94C246.641 128.22 247.911 129.13 249.381 129.13C251.341 129.13 252.921 127.54 252.921 125.59C252.921 123.64 251.331 122.05 249.381 122.05L249.381 122.04Z" fill="#0c141c" fill-rule="nonzero" opacity="1" stroke="none"/>
</g>
</svg>
